<?xml version="1.0" encoding="utf-8"?>
<!-- Generator: Adobe Illustrator 27.0.0, SVG Export Plug-In . SVG Version: 6.00 Build 0)  -->
<svg version="1.1" id="Layer_1" xmlns="http://www.w3.org/2000/svg" xmlns:xlink="http://www.w3.org/1999/xlink" x="0px" y="0px"
	 viewBox="0 0 251.43 103.88" enable-background="new 0 0 251.43 103.88" xml:space="preserve">
<g>
	<path fill="#FFFFFF" d="M29.3,20.37c5.33,0,10.35,1.33,15.04,4c4.69,2.67,8.36,6.29,10.99,10.86c2.63,4.57,3.95,9.51,3.95,14.81
		c0,5.33-1.32,10.32-3.97,14.96c-2.65,4.64-6.26,8.27-10.83,10.89c-4.57,2.61-9.61,3.92-15.12,3.92c-8.1,0-15.02-2.88-20.76-8.65
		C2.87,65.38,0,58.38,0,50.13c0-8.83,3.24-16.19,9.72-22.08C15.4,22.93,21.92,20.37,29.3,20.37z M29.54,33.72
		c-4.41,0-8.08,1.53-11.01,4.6c-2.93,3.06-4.4,6.99-4.4,11.77c0,4.92,1.45,8.9,4.35,11.95c2.9,3.05,6.57,4.57,11.01,4.57
		c4.44,0,8.14-1.54,11.08-4.62c2.95-3.08,4.42-7.05,4.42-11.9c0-4.85-1.45-8.79-4.35-11.82C37.75,35.23,34.05,33.72,29.54,33.72z"/>
	<path fill="#FFFFFF" d="M75.06,0v28.05c2.56-2.56,5.33-4.49,8.31-5.77c2.98-1.28,6.16-1.92,9.56-1.92c7.38,0,13.65,2.79,18.81,8.36
		c5.16,5.58,7.74,12.73,7.74,21.46c0,8.42-2.67,15.46-8,21.12c-5.33,5.66-11.66,8.49-18.96,8.49c-3.26,0-6.29-0.58-9.09-1.74
		c-2.81-1.16-5.59-3.06-8.36-5.69v5.98H60.99V0H75.06z M89.98,33.46c-4.47,0-8.17,1.53-11.12,4.57c-2.94,3.05-4.42,7.03-4.42,11.95
		c0,5.02,1.47,9.08,4.42,12.18c2.94,3.1,6.65,4.65,11.12,4.65c4.33,0,7.97-1.58,10.94-4.73c2.96-3.15,4.44-7.17,4.44-12.05
		c0-4.85-1.45-8.82-4.36-11.92C98.08,35.01,94.41,33.46,89.98,33.46z"/>
	<path fill="#FFFFFF" d="M165.8,0h14.18v78.34H165.8v-5.98c-2.77,2.63-5.55,4.53-8.33,5.69c-2.79,1.16-5.8,1.74-9.06,1.74
		c-7.3,0-13.61-2.83-18.94-8.49c-5.33-5.66-7.99-12.7-7.99-21.12c0-8.73,2.58-15.88,7.73-21.46c5.15-5.58,11.42-8.36,18.78-8.36
		c3.39,0,6.57,0.64,9.55,1.92c2.97,1.28,5.72,3.2,8.25,5.77V0z M150.89,33.46c-4.38,0-8.03,1.55-10.93,4.65
		c-2.9,3.1-4.35,7.07-4.35,11.92c0,4.88,1.47,8.9,4.42,12.05c2.95,3.15,6.59,4.73,10.9,4.73c4.45,0,8.15-1.55,11.08-4.65
		c2.93-3.1,4.4-7.16,4.4-12.18c0-4.92-1.47-8.9-4.4-11.95C159.09,34.98,155.38,33.46,150.89,33.46z"/>
	<path fill="#00ABE9" d="M194.13,0.01l-10.97,78.33h8.29l10.99-78.33H194.13z"/>
	<path fill="#00ABE9" d="M218.77,89.73c-1.14,2.13-2.27,4.06-3.4,5.8c-1.14,1.74-2.39,3.23-3.78,4.47c-1.38,1.24-3,2.2-4.84,2.87
		c-1.85,0.67-4.01,1.01-6.49,1.01c-1.21,0-2.47-0.07-3.78-0.21c-1.31-0.14-2.46-0.5-3.46-1.06l2.02-7.23
		c1.42,0.57,3.33,0.85,5.75,0.85c2.7,0,4.79-0.75,6.28-2.23s2.87-3.48,4.15-5.96l4.68-9.36l-13.62-50.11h9.68l10,39.05h0.21
		l20.22-39.05h9.04L218.77,89.73z"/>
</g>
</svg>
